<svg width="40" height="40" viewBox="0 0 40 40" fill="none" xmlns="http://www.w3.org/2000/svg">
<path d="M10.0568 17V8.27273H15.2898V9.21023H11.1136V12.1591H14.8977V13.0966H11.1136V17H10.0568ZM26.2021 8.27273H27.2589V14.0511C27.2589 14.6477 27.1183 15.1804 26.837 15.6491C26.5586 16.1151 26.1651 16.483 25.6566 16.7528C25.1481 17.0199 24.5515 17.1534 23.8668 17.1534C23.1822 17.1534 22.5856 17.0199 22.0771 16.7528C21.5685 16.483 21.1737 16.1151 20.8924 15.6491C20.614 15.1804 20.4748 14.6477 20.4748 14.0511V8.27273H21.5316V13.9659C21.5316 14.392 21.6254 14.7713 21.8129 15.1037C22.0004 15.4332 22.2674 15.6932 22.614 15.8835C22.9634 16.071 23.381 16.1648 23.8668 16.1648C24.3526 16.1648 24.7702 16.071 25.1197 15.8835C25.4691 15.6932 25.7362 15.4332 25.9208 15.1037C26.1083 14.7713 26.2021 14.392 26.2021 13.9659V8.27273ZM11.642 32L9.25568 23.2727H10.3295L12.1534 30.3807H12.2386L14.0966 23.2727H15.2898L17.1477 30.3807H17.233L19.0568 23.2727H20.1307L17.7443 32H16.6534L14.7273 25.0455H14.6591L12.733 32H11.642ZM25.1804 32H24.0724L27.277 23.2727H28.3679L31.5724 32H30.4645L27.8565 24.6534H27.7884L25.1804 32ZM25.5895 28.5909H30.0554V29.5284H25.5895V28.5909Z" fill="black"/>
<path d="M10.0568 17H9.05682V18H10.0568V17ZM10.0568 8.27273V7.27273H9.05682V8.27273H10.0568ZM15.2898 8.27273H16.2898V7.27273H15.2898V8.27273ZM15.2898 9.21023V10.2102H16.2898V9.21023H15.2898ZM11.1136 9.21023V8.21023H10.1136V9.21023H11.1136ZM11.1136 12.1591H10.1136V13.1591H11.1136V12.1591ZM14.8977 12.1591H15.8977V11.1591H14.8977V12.1591ZM14.8977 13.0966V14.0966H15.8977V13.0966H14.8977ZM11.1136 13.0966V12.0966H10.1136V13.0966H11.1136ZM11.1136 17V18H12.1136V17H11.1136ZM11.0568 17V8.27273H9.05682V17H11.0568ZM10.0568 9.27273H15.2898V7.27273H10.0568V9.27273ZM14.2898 8.27273V9.21023H16.2898V8.27273H14.2898ZM15.2898 8.21023H11.1136V10.2102H15.2898V8.21023ZM10.1136 9.21023V12.1591H12.1136V9.21023H10.1136ZM11.1136 13.1591H14.8977V11.1591H11.1136V13.1591ZM13.8977 12.1591V13.0966H15.8977V12.1591H13.8977ZM14.8977 12.0966H11.1136V14.0966H14.8977V12.0966ZM10.1136 13.0966V17H12.1136V13.0966H10.1136ZM11.1136 16H10.0568V18H11.1136V16ZM26.2021 8.27273V7.27273H25.2021V8.27273H26.2021ZM27.2589 8.27273H28.2589V7.27273H27.2589V8.27273ZM26.837 15.6491L25.9795 15.1347L25.9786 15.1362L26.837 15.6491ZM25.6566 16.7528L26.1215 17.6382L26.1254 17.6361L25.6566 16.7528ZM22.0771 16.7528L21.6083 17.6362L21.6121 17.6382L22.0771 16.7528ZM20.8924 15.6491L20.0326 16.1598L20.0363 16.1659L20.8924 15.6491ZM20.4748 8.27273V7.27273H19.4748V8.27273H20.4748ZM21.5316 8.27273H22.5316V7.27273H21.5316V8.27273ZM21.8129 15.1037L20.9419 15.595L20.9437 15.5982L21.8129 15.1037ZM22.614 15.8835L22.1326 16.7601L22.1412 16.7647L22.614 15.8835ZM25.1197 15.8835L25.5925 16.7647L25.598 16.7617L25.1197 15.8835ZM25.9208 15.1037L25.0498 14.6124L25.0484 14.6149L25.9208 15.1037ZM26.2021 9.27273H27.2589V7.27273H26.2021V9.27273ZM26.2589 8.27273V14.0511H28.2589V8.27273H26.2589ZM26.2589 14.0511C26.2589 14.4836 26.1591 14.8354 25.9795 15.1347L27.6945 16.1636C28.0774 15.5254 28.2589 14.8119 28.2589 14.0511H26.2589ZM25.9786 15.1362C25.7996 15.4358 25.5453 15.6798 25.1878 15.8695L26.1254 17.6361C26.785 17.2861 27.3176 16.7943 27.6954 16.1621L25.9786 15.1362ZM25.1917 15.8675C24.8517 16.046 24.4205 16.1534 23.8668 16.1534V18.1534C24.6825 18.1534 25.4445 17.9937 26.1215 17.6382L25.1917 15.8675ZM23.8668 16.1534C23.3132 16.1534 22.882 16.046 22.542 15.8675L21.6121 17.6382C22.2892 17.9937 23.0512 18.1534 23.8668 18.1534V16.1534ZM22.5459 15.8695C22.1876 15.6794 21.9307 15.4342 21.7485 15.1324L20.0363 16.1659C20.4166 16.7959 20.9495 17.2865 21.6083 17.6361L22.5459 15.8695ZM21.7522 15.1385C21.5741 14.8386 21.4748 14.4855 21.4748 14.0511H19.4748C19.4748 14.81 19.6539 15.5222 20.0326 16.1598L21.7522 15.1385ZM21.4748 14.0511V8.27273H19.4748V14.0511H21.4748ZM20.4748 9.27273H21.5316V7.27273H20.4748V9.27273ZM20.5316 8.27273V13.9659H22.5316V8.27273H20.5316ZM20.5316 13.9659C20.5316 14.5437 20.6603 15.0958 20.9419 15.595L22.6838 14.6124C22.5904 14.4468 22.5316 14.2404 22.5316 13.9659H20.5316ZM20.9437 15.5982C21.2267 16.0956 21.6312 16.4847 22.1326 16.76L23.0954 15.007C22.9036 14.9017 22.774 14.7709 22.682 14.6092L20.9437 15.5982ZM22.1412 16.7647C22.6652 17.0459 23.2527 17.1648 23.8668 17.1648V15.1648C23.5093 15.1648 23.2616 15.0962 23.0868 15.0024L22.1412 16.7647ZM23.8668 17.1648C24.4809 17.1648 25.0684 17.0459 25.5925 16.7647L24.6469 15.0024C24.472 15.0962 24.2243 15.1648 23.8668 15.1648V17.1648ZM25.598 16.7617C26.1036 16.4863 26.5115 16.0953 26.7932 15.5925L25.0484 14.6149C24.9608 14.7712 24.8346 14.9001 24.6413 15.0054L25.598 16.7617ZM26.7918 15.595C27.0734 15.0958 27.2021 14.5437 27.2021 13.9659H25.2021C25.2021 14.2404 25.1432 14.4468 25.0498 14.6124L26.7918 15.595ZM27.2021 13.9659V8.27273H25.2021V13.9659H27.2021ZM11.642 32L10.6775 32.2638L10.8788 33H11.642V32ZM9.25568 23.2727V22.2727H7.94553L8.29109 23.5365L9.25568 23.2727ZM10.3295 23.2727L11.2982 23.0242L11.1053 22.2727H10.3295V23.2727ZM12.1534 30.3807L11.1848 30.6292L11.3776 31.3807H12.1534V30.3807ZM12.2386 30.3807V31.3807H13.0108L13.2061 30.6336L12.2386 30.3807ZM14.0966 23.2727V22.2727H13.3244L13.1291 23.0198L14.0966 23.2727ZM15.2898 23.2727L16.2573 23.0198L16.062 22.2727H15.2898V23.2727ZM17.1477 30.3807L16.1802 30.6336L16.3755 31.3807H17.1477V30.3807ZM17.233 30.3807V31.3807H18.0088L18.2016 30.6292L17.233 30.3807ZM19.0568 23.2727V22.2727H18.281L18.0882 23.0242L19.0568 23.2727ZM20.1307 23.2727L21.0953 23.5365L21.4408 22.2727H20.1307V23.2727ZM17.7443 32V33H18.5076L18.7089 32.2638L17.7443 32ZM16.6534 32L15.6897 32.2669L15.8927 33H16.6534V32ZM14.7273 25.0455L15.691 24.7785L15.488 24.0455H14.7273V25.0455ZM14.6591 25.0455V24.0455H13.8984L13.6954 24.7785L14.6591 25.0455ZM12.733 32V33H13.4936L13.6967 32.2669L12.733 32ZM12.6066 31.7362L10.2203 23.009L8.29109 23.5365L10.6775 32.2638L12.6066 31.7362ZM9.25568 24.2727H10.3295V22.2727H9.25568V24.2727ZM9.36092 23.5213L11.1848 30.6292L13.122 30.1321L11.2982 23.0242L9.36092 23.5213ZM12.1534 31.3807H12.2386V29.3807H12.1534V31.3807ZM13.2061 30.6336L15.0641 23.5256L13.1291 23.0198L11.2711 30.1278L13.2061 30.6336ZM14.0966 24.2727H15.2898V22.2727H14.0966V24.2727ZM14.3223 23.5256L16.1802 30.6336L18.1152 30.1278L16.2573 23.0198L14.3223 23.5256ZM17.1477 31.3807H17.233V29.3807H17.1477V31.3807ZM18.2016 30.6292L20.0254 23.5213L18.0882 23.0242L16.2643 30.1321L18.2016 30.6292ZM19.0568 24.2727H20.1307V22.2727H19.0568V24.2727ZM19.1661 23.009L16.7797 31.7362L18.7089 32.2638L21.0953 23.5365L19.1661 23.009ZM17.7443 31H16.6534V33H17.7443V31ZM17.6171 31.7331L15.691 24.7785L13.7636 25.3124L15.6897 32.2669L17.6171 31.7331ZM14.7273 24.0455H14.6591V26.0455H14.7273V24.0455ZM13.6954 24.7785L11.7692 31.7331L13.6967 32.2669L15.6228 25.3124L13.6954 24.7785ZM12.733 31H11.642V33H12.733V31ZM25.1804 32V33H25.8865L26.1228 32.3345L25.1804 32ZM24.0724 32L23.1337 31.6553L22.64 33H24.0724V32ZM27.277 23.2727V22.2727H26.5789L26.3383 22.928L27.277 23.2727ZM28.3679 23.2727L29.3066 22.928L29.066 22.2727H28.3679V23.2727ZM31.5724 32V33H33.0049L32.5112 31.6553L31.5724 32ZM30.4645 32L29.5221 32.3345L29.7583 33H30.4645V32ZM27.8565 24.6534L28.7989 24.3189L28.5627 23.6534H27.8565V24.6534ZM27.7884 24.6534V23.6534H27.0822L26.846 24.3189L27.7884 24.6534ZM25.5895 28.5909V27.5909H24.5895V28.5909H25.5895ZM30.0554 28.5909H31.0554V27.5909H30.0554V28.5909ZM30.0554 29.5284V30.5284H31.0554V29.5284H30.0554ZM25.5895 29.5284H24.5895V30.5284H25.5895V29.5284ZM25.1804 31H24.0724V33H25.1804V31ZM25.0112 32.3447L28.2157 23.6174L26.3383 22.928L23.1337 31.6553L25.0112 32.3447ZM27.277 24.2727H28.3679V22.2727H27.277V24.2727ZM27.4292 23.6174L30.6337 32.3447L32.5112 31.6553L29.3066 22.928L27.4292 23.6174ZM31.5724 31H30.4645V33H31.5724V31ZM31.4069 31.6655L28.7989 24.3189L26.9142 24.9879L29.5221 32.3345L31.4069 31.6655ZM27.8565 23.6534H27.7884V25.6534H27.8565V23.6534ZM26.846 24.3189L24.238 31.6655L26.1228 32.3345L28.7307 24.9879L26.846 24.3189ZM25.5895 29.5909H30.0554V27.5909H25.5895V29.5909ZM29.0554 28.5909V29.5284H31.0554V28.5909H29.0554ZM30.0554 28.5284H25.5895V30.5284H30.0554V28.5284ZM26.5895 29.5284V28.5909H24.5895V29.5284H26.5895Z" fill="black"/>
<rect x="1" y="1" width="38" height="38" stroke="black" stroke-width="2"/>
</svg>
